<?xml version="1.0" encoding="utf-8"?>
<!-- Generator: Adobe Illustrator 19.1.0, SVG Export Plug-In . SVG Version: 6.00 Build 0)  -->
<svg version="1.1" id="Layer_1" xmlns="http://www.w3.org/2000/svg" xmlns:xlink="http://www.w3.org/1999/xlink" x="0px" y="0px"
	 viewBox="-49 51 100 100" style="enable-background:new -49 51 100 100;" xml:space="preserve">
<style type="text/css">
	.st0{fill:#DBDBDB;}
</style>
<path class="st0" d="M30.8,137.1h-59.9c-3.6,0-6.5-2.9-6.5-6.5V72.7c0-3.6,2.9-6.5,6.5-6.5h6.7v3h-6.7c-2,0-3.5,1.5-3.5,3.5v57.9
	c0,2,1.5,3.5,3.5,3.5h59.9c2,0,3.5-1.5,3.5-3.5V72.7c0-2-1.5-3.5-3.5-3.5h-7.5v-3h7.5c3.6,0,6.5,2.9,6.5,6.5v57.9
	C37.3,134.2,34.4,137.1,30.8,137.1z"/>
<rect x="-10" y="66.2" class="st0" width="21.7" height="3"/>
<path class="st0" d="M-16,86.4c-3.8,0-6.9-3.1-6.9-6.9s3.1-6.9,6.9-6.9s6.9,3.1,6.9,6.9S-12.2,86.4-16,86.4z M-16,75.6
	c-2.2,0-3.9,1.7-3.9,3.9s1.7,3.9,3.9,3.9s3.9-1.7,3.9-3.9S-13.8,75.6-16,75.6z"/>
<rect x="-34" y="91" class="st0" width="70" height="3"/>
<rect x="-17.5" y="62" class="st0" width="3" height="12.1"/>
<path class="st0" d="M17.9,86.4c-3.8,0-6.9-3.1-6.9-6.9s3.1-6.9,6.9-6.9s6.9,3.1,6.9,6.9S21.7,86.4,17.9,86.4z M17.9,75.6
	c-2.2,0-3.9,1.7-3.9,3.9s1.8,3.9,3.9,3.9s3.9-1.7,3.9-3.9S20.1,75.6,17.9,75.6z"/>
<rect x="16.4" y="62" class="st0" width="3" height="12.1"/>
</svg>
