<?xml version="1.0" encoding="utf-8"?>
<!-- Generator: Adobe Illustrator 19.1.0, SVG Export Plug-In . SVG Version: 6.00 Build 0)  -->
<svg version="1.1" id="Layer_1" xmlns="http://www.w3.org/2000/svg" xmlns:xlink="http://www.w3.org/1999/xlink" x="0px" y="0px"
	 viewBox="-49 51 100 100" style="enable-background:new -49 51 100 100;" xml:space="preserve">
<style type="text/css">
	.st0{fill:#E2575A;}
</style>
<path class="st0" d="M38.9,148h-74.1c-4.5,0-8-3.5-8-8V68.3c0-4.5,3.5-8,8-8h8.3V64h-8.3c-2.4,0-4.3,1.9-4.3,4.3V140
	c0,2.4,1.9,4.3,4.3,4.3h74.1c2.4,0,4.3-1.9,4.3-4.3V68.3c0-2.4-1.9-4.3-4.3-4.3h-9.3v-3.7h9.3c4.5,0,8,3.5,8,8V140
	C46.9,144.5,43.4,148,38.9,148z"/>
<rect x="-11.6" y="60.3" class="st0" width="26.8" height="3.7"/>
<path class="st0" d="M-19,85.3c-4.7,0-8.5-3.8-8.5-8.5c0-4.7,3.8-8.5,8.5-8.5s8.5,3.8,8.5,8.5C-10.5,81.5-14.3,85.3-19,85.3z
	 M-19,71.9c-2.7,0-4.8,2.2-4.8,4.8s2.2,4.8,4.8,4.8s4.8-2.2,4.8-4.8S-16.3,71.9-19,71.9z"/>
<rect x="-41.3" y="91" class="st0" width="86.6" height="3.7"/>
<rect x="-20.8" y="55.1" class="st0" width="3.7" height="15"/>
<path class="st0" d="M22.9,85.3c-4.7,0-8.5-3.8-8.5-8.5c0-4.7,3.8-8.5,8.5-8.5s8.5,3.8,8.5,8.5C31.5,81.5,27.6,85.3,22.9,85.3z
	 M22.9,71.9c-2.7,0-4.8,2.2-4.8,4.8s2.2,4.8,4.8,4.8s4.8-2.2,4.8-4.8S25.6,71.9,22.9,71.9z"/>
<rect x="21.1" y="55.1" class="st0" width="3.7" height="15"/>
</svg>
