<?xml version="1.0" encoding="utf-8"?>
<!-- Generator: Adobe Illustrator 19.1.0, SVG Export Plug-In . SVG Version: 6.00 Build 0)  -->
<svg version="1.1" id="Layer_1" xmlns="http://www.w3.org/2000/svg" xmlns:xlink="http://www.w3.org/1999/xlink" x="0px" y="0px"
	 viewBox="-49 51 100 100" style="enable-background:new -49 51 100 100;" xml:space="preserve">
<style type="text/css">
	.st0{fill:#E2575A;}
</style>
<g>
	<g>
		<path class="st0" d="M43.4,85.9c-4.7-11.1-12.8-19.1-24-23.9C13.8,59.6,8,58.4,1.9,58.4c-6.1,0-11.9,1.2-17.5,3.6
			c-11.1,4.7-19.2,12.8-23.9,23.9c-2.4,5.6-3.5,11.4-3.5,17.5c0,6.1,1.2,12,3.5,17.5c4.8,11.1,12.9,19.2,23.9,23.9
			c5.6,2.4,11.4,3.6,17.5,3.6s12-1.2,17.5-3.6c11.2-4.8,19.2-12.9,24-23.9c2.4-5.6,3.6-11.4,3.6-17.5C47,97.2,45.8,91.4,43.4,85.9z
			 M36.2,123.2c-3.5,6.1-8.4,10.9-14.5,14.4C15.6,141.2,9,143,1.9,143c-5.4,0-10.5-1-15.4-3.2c-4.9-2.1-9.1-4.9-12.6-8.4
			c-3.5-3.5-6.3-7.8-8.4-12.7c-2.1-4.9-3.1-10-3.1-15.4c0-7.1,1.8-13.7,5.3-19.8c3.5-6.1,8.4-10.9,14.4-14.4
			c6.1-3.5,12.7-5.3,19.8-5.3c7.1,0,13.8,1.8,19.8,5.3c6.1,3.6,10.9,8.4,14.5,14.4c3.5,6.1,5.3,12.7,5.3,19.8
			C41.5,110.5,39.7,117.1,36.2,123.2z"/>
		<path class="st0" d="M4.8,103.2L4.4,76.4c0-1.5-1-3.1-2.6-3.1c-1.4,0-2.7,1.2-2.7,2.8v27.3c0,0,0,0.2,0,0.4
			c-0.1,0.9,0.2,1.6,0.8,2.2l16.8,16.8c1,1,2.8,1,3.8,0c1.1-1.1,0.9-2.9-0.2-4L4.8,103.2z"/>
	</g>
</g>
</svg>
