<?xml version="1.0" encoding="utf-8"?>
<!-- Generator: Adobe Illustrator 19.1.0, SVG Export Plug-In . SVG Version: 6.00 Build 0)  -->
<svg version="1.1" id="Layer_1" xmlns="http://www.w3.org/2000/svg" xmlns:xlink="http://www.w3.org/1999/xlink" x="0px" y="0px"
	 viewBox="-49 51 100 100" style="enable-background:new -49 51 100 100;" xml:space="preserve">
<style type="text/css">
	.st0{fill:#E2575A;}
</style>
<g>
	<g>
		<path class="st0" d="M38.2,137.6c-0.8-1.3-2.6-1.8-3.9-1c-6.1,3.4-13.1,5.2-20.1,5.2C-8,141.8-26,124.5-26,103.2
			C-26,82-8,64.7,14.2,64.7c7.1,0,14,1.8,20.1,5.2c1.4,0.8,3.1,0.3,3.9-1c0.8-1.3,0.3-3-1-3.8c-7-3.9-14.9-5.9-23-5.9
			c-25.3,0-45.9,19.8-45.9,44.1c0,24.3,20.6,44.1,45.9,44.1c8.1,0,16-2.1,23-5.9C38.5,140.6,39,138.9,38.2,137.6z"/>
	</g>
</g>
<g>
	<g>
		<path class="st0" d="M9.6,92.2h-46.8c-1.6,0-2.9,1.2-2.9,2.8s1.3,2.8,2.9,2.8H9.6c1.6,0,2.9-1.2,2.9-2.8S11.2,92.2,9.6,92.2z"/>
	</g>
</g>
<g>
	<g>
		<path class="st0" d="M9.6,108.7h-46.8c-1.6,0-2.9,1.2-2.9,2.8s1.3,2.8,2.9,2.8H9.6c1.6,0,2.9-1.2,2.9-2.8S11.2,108.7,9.6,108.7z"
			/>
	</g>
</g>
</svg>
