<?xml version="1.0" encoding="utf-8"?>
<!-- Generator: Adobe Illustrator 19.1.0, SVG Export Plug-In . SVG Version: 6.00 Build 0)  -->
<svg version="1.1" id="Layer_1" xmlns="http://www.w3.org/2000/svg" xmlns:xlink="http://www.w3.org/1999/xlink" x="0px" y="0px"
	 viewBox="84 -84.2 368.2 368.2" style="enable-background:new 84 -84.2 368.2 368.2;" xml:space="preserve">
<style type="text/css">
	.st0{fill:#E2575A;}
</style>
<g>
	<g>
		<g>
			<path class="st0" d="M332.1,12.5h12c4.4,0,8-3.6,8-8s-3.6-8-8-8h-12c-4.4,0-8,3.6-8,8S327.7,12.5,332.1,12.5z"/>
			<path class="st0" d="M450.5-58.7c-2.8-5.6-8.4-8.8-14.4-8.8h-336c-6,0-11.6,3.6-14.4,8.8c-2.8,5.6-2,12,1.6,16.8l141.2,177.6
				v115.6c0,6,3.2,11.2,8.4,14c2.4,1.2,4.8,2,7.6,2c3.2,0,6.4-0.8,9.2-2.8l44.4-30.8c6.4-4.8,10-12,10-19.6v-78.8L448.9-41.9
				C452.5-46.7,453.3-53.1,450.5-58.7z M293.7,127.7c-0.8,1.2-1.6,2.8-1.6,4.8v81.2c0,2.8-1.2,5.2-3.2,6.8l-44.4,30.8V132.5
				c0-2.8-1.2-5.2-3.2-6.4L150.9,12.5h145.2c4.4,0,8-3.6,8-8s-3.6-8-8-8h-156c-0.4,0-1.2,0-1.6,0l-38.4-48h336L293.7,127.7z"/>
		</g>
	</g>
</g>
</svg>
